HIERARCHY
ROOT Hips
{
	OFFSET 0.00000 0.00000 0.00000
	CHANNELS 6 Xposition Yposition Zposition Zrotation Yrotation Xrotation 
	JOINT LHipJoint
	{
		OFFSET 0 0 0
		CHANNELS 3 Zrotation Yrotation Xrotation
		JOINT LeftUpLeg
		{
			OFFSET 1.41261 -1.82971 0.84908
			CHANNELS 3 Zrotation Yrotation Xrotation
			JOINT LeftLeg
			{
				OFFSET 2.52554 -6.93888 0.00000
				CHANNELS 3 Zrotation Yrotation Xrotation
				JOINT LeftFoot
				{
					OFFSET 2.56654 -7.05152 0.00000
					CHANNELS 3 Zrotation Yrotation Xrotation
					JOINT LeftToeBase
					{
						OFFSET 0.21698 -0.59616 1.85369
						CHANNELS 3 Zrotation Yrotation Xrotation
						End Site
						{
							OFFSET 0.00000 -0.00000 0.97832
						}
					}
				}
			}
		}
	}
	JOINT RHipJoint
	{
		OFFSET 0 0 0
		CHANNELS 3 Zrotation Yrotation Xrotation
		JOINT RightUpLeg
		{
			OFFSET -1.12808 -1.82971 0.84907
			CHANNELS 3 Zrotation Yrotation Xrotation
			JOINT RightLeg
			{
				OFFSET -2.53425 -6.96280 0.00000
				CHANNELS 3 Zrotation Yrotation Xrotation
				JOINT RightFoot
				{
					OFFSET -2.58413 -7.09983 0.00000
					CHANNELS 3 Zrotation Yrotation Xrotation
					JOINT RightToeBase
					{
						OFFSET -0.26437 -0.72636 1.92241
						CHANNELS 3 Zrotation Yrotation Xrotation
						End Site
						{
							OFFSET -0.00000 -0.00000 1.02667
						}
					}
				}
			}
		}
	}
	JOINT LowerBack
	{
		OFFSET 0 0 0
		CHANNELS 3 Zrotation Yrotation Xrotation
		JOINT Spine
		{
			OFFSET -0.02096 2.02288 -0.14752
			CHANNELS 3 Zrotation Yrotation Xrotation
			JOINT Spine1
			{
				OFFSET 0.03477 2.03136 -0.02358
				CHANNELS 3 Zrotation Yrotation Xrotation
				JOINT Neck
				{
					OFFSET 0 0 0
					CHANNELS 3 Zrotation Yrotation Xrotation
					JOINT Neck1
					{
						OFFSET 0.00174 1.74359 0.19336
						CHANNELS 3 Zrotation Yrotation Xrotation
						JOINT Head
						{
							OFFSET -0.03054 1.76140 -0.17751
							CHANNELS 3 Zrotation Yrotation Xrotation
							End Site
							{
								OFFSET -0.00863 1.77239 -0.08120
							}
						}
					}
				}
				JOINT LeftShoulder
				{
					OFFSET 0 0 0
					CHANNELS 3 Zrotation Yrotation Xrotation
					JOINT LeftArm
					{
						OFFSET 3.68685 1.32687 -0.67367
						CHANNELS 3 Zrotation Yrotation Xrotation
						JOINT LeftForeArm
						{
							OFFSET 4.76468 -0.00000 -0.00000
							CHANNELS 3 Zrotation Yrotation Xrotation
							JOINT LeftHand
							{
								OFFSET 3.52712 -0.00000 -0.00000
								CHANNELS 3 Zrotation Yrotation Xrotation
								JOINT LeftFingerBase
								{
									OFFSET 0 0 0
									CHANNELS 3 Zrotation Yrotation Xrotation
									JOINT LeftHandIndex1
									{
										OFFSET 0.85956 -0.00000 -0.00000
										CHANNELS 3 Zrotation Yrotation Xrotation
										End Site
										{
											OFFSET 0.69300 -0.00000 -0.00000
										}
									}
								}
								JOINT LThumb
								{
									OFFSET 0 0 0
									CHANNELS 3 Zrotation Yrotation Xrotation
									End Site
									{
										OFFSET 0.70358 -0.00000 0.70358
									}
								}
							}
						}
					}
				}
				JOINT RightShoulder
				{
					OFFSET 0 0 0
					CHANNELS 3 Zrotation Yrotation Xrotation
					JOINT RightArm
					{
						OFFSET -3.31304 1.28268 -0.97357
						CHANNELS 3 Zrotation Yrotation Xrotation
						JOINT RightForeArm
						{
							OFFSET -4.90577 -0.00000 -0.00000
							CHANNELS 3 Zrotation Yrotation Xrotation
							JOINT RightHand
							{
								OFFSET -3.42692 -0.00000 0.00000
								CHANNELS 3 Zrotation Yrotation Xrotation
								JOINT RightFingerBase
								{
									OFFSET 0 0 0
									CHANNELS 3 Zrotation Yrotation Xrotation
									JOINT RightHandIndex1
									{
										OFFSET -0.74096 -0.00000 -0.00000
										CHANNELS 3 Zrotation Yrotation Xrotation
										End Site
										{
											OFFSET -0.59738 -0.00000 -0.00000
										}
									}
								}
								JOINT RThumb
								{
									OFFSET 0 0 0
									CHANNELS 3 Zrotation Yrotation Xrotation
									End Site
									{
										OFFSET -0.60650 -0.00000 0.60650
									}
								}
							}
						}
					}
				}
			}
		}
	}
}
MOTION
Frames: 14
Frame Time: .0083333
15.7852 17.6440 21.9251 1.1540 35.3838 -3.5066 0.0000 0.0000 0.0000 -20.3796 -3.2347 -8.4361 3.7563 11.8289 35.1294 0.1137 -9.4913 -8.4929 4.2002 -12.4222 -37.2424 0.0000 0.0000 0.0000 18.8485 2.3337 -8.3043 -4.3461 -12.6072 37.9154 -0.3031 -7.2916 -15.5391 -0.5389 -4.7034 13.0644 -0.4688 1.3368 7.5440 2.9152 1.9313 -2.0456 3.0659 1.0376 -6.4992 1.9532 6.6736 -13.8108 -8.4183 9.9719 11.5793 -2.0164 4.2954 6.3249 0.0000 0.0000 0.0000 -90.1661 -2.5099 42.6910 138.5013 -48.9331 -100.4383 -0.0000 0.0000 -14.2465 16.0791 -26.9692 -7.4475 -7.1250 0.0000 -0.0000 -8.3551 2.3326 8.0957 0.0000 0.0000 0.0000 87.4264 13.0814 37.8198 -96.6862 59.8304 -65.7871 0.0000 -0.0000 -4.9570 -16.8815 -25.1996 7.3624 7.1250 -0.0000 -0.0000 13.7519 -55.6336 -3.6384
15.8673 17.7362 22.0356 1.0738 35.0694 -2.8518 0.0000 0.0000 0.0000 -20.5623 -3.6694 -7.6649 3.4346 11.3673 33.5290 0.1008 -8.5519 -7.7918 4.4063 -12.6823 -38.1907 0.0000 0.0000 0.0000 18.8372 2.3396 -7.9264 -4.0497 -12.2263 36.5373 -0.2304 -7.1910 -14.4098 -0.4964 -4.5171 12.5363 -0.0219 1.2956 7.3278 2.7688 1.9181 -2.4010 2.6638 1.0136 -6.7299 2.8675 7.0751 -13.3277 -9.0812 10.4346 11.4014 -2.3343 4.5288 6.2971 -0.0000 -0.0000 0.0000 -88.6350 -1.0165 42.7122 138.8832 -48.7178 -100.7257 -0.0000 0.0000 -13.1821 20.6870 -26.5879 -9.5927 -7.1250 0.0000 -0.0000 -5.5590 1.9490 5.3924 -0.0000 -0.0000 0.0000 87.9708 12.1582 38.0738 -98.3760 59.7332 -67.2473 0.0000 -0.0000 -6.1490 -17.8739 -25.3343 7.8568 7.1250 -0.0000 -0.0000 12.7991 -55.9671 -3.4842
15.9463 17.8087 22.1403 0.6608 34.7326 -2.2215 0.0000 0.0000 0.0000 -20.3773 -4.0578 -7.3042 3.1900 10.9965 32.2681 0.0837 -7.7499 -7.0762 4.4901 -12.7855 -38.5708 0.0000 0.0000 0.0000 19.0910 2.2616 -7.9149 -3.8126 -11.9068 35.4031 -0.1847 -6.9370 -13.4387 -0.3931 -4.0260 11.1498 0.4361 1.3455 6.6655 2.8992 2.0325 -2.5892 2.5391 1.0559 -6.5435 3.2244 7.3063 -13.0138 -9.5352 10.7338 11.1319 -2.5126 4.6743 6.2236 0.0000 0.0000 0.0000 -88.4617 0.1786 41.9701 138.7924 -48.7693 -100.6574 -0.0000 0.0000 -13.4921 22.1126 -26.9228 -10.4244 -7.1250 0.0000 -0.0000 -4.7444 1.3368 4.6485 0.0000 0.0000 0.0000 87.8811 11.4764 38.1165 -99.1889 59.6785 -67.9493 0.0000 -0.0000 -7.0967 -18.2149 -25.7364 8.1321 7.1250 -0.0000 -0.0000 12.6494 -56.4368 -3.5873
16.0190 17.8543 22.2404 0.3467 34.3149 -1.6211 0.0000 0.0000 0.0000 -20.1994 -4.0060 -7.1718 3.0019 10.6981 31.2683 0.0746 -7.2674 -6.6550 4.6062 -12.9261 -39.0926 0.0000 0.0000 0.0000 19.2578 2.2191 -7.9485 -3.6344 -11.6573 34.5300 -0.1587 -6.5914 -12.6370 -0.2406 -3.1567 8.7154 0.6803 1.4063 6.1261 3.0494 2.1394 -2.7371 2.5562 1.1040 -6.3924 3.4935 7.5546 -12.7553 -9.8791 11.0576 10.8894 -2.6380 4.8341 6.1609 0.0000 0.0000 0.0000 -89.4011 1.7330 40.6155 138.0507 -49.1833 -100.0979 -0.0000 0.0000 -13.4604 22.7416 -27.6245 -10.9986 -7.1250 0.0000 -0.0000 -4.4582 0.4860 4.4337 0.0000 0.0000 0.0000 87.6499 10.7959 38.2076 -98.8308 59.7033 -67.6401 0.0000 -0.0000 -7.7208 -18.5925 -26.4305 8.5157 7.1250 -0.0000 -0.0000 12.6171 -57.2063 -3.8138
16.0823 17.8768 22.3386 0.3446 34.0070 -0.9848 0.0000 0.0000 0.0000 -20.2050 -3.5789 -7.1795 2.8539 10.4546 30.4619 0.0682 -7.2980 -6.5477 4.8457 -13.2078 -40.1516 0.0000 0.0000 0.0000 19.1929 2.2529 -7.9172 -3.5070 -11.4738 33.8950 -0.1600 -6.2958 -12.3434 -0.1854 -2.7729 7.6471 0.5162 1.3926 5.7480 3.1196 2.1067 -2.8481 2.7332 1.0977 -6.3004 4.0491 7.9205 -12.4301 -10.2989 11.5041 10.6550 -2.8204 5.0615 6.1214 -0.0000 0.0000 0.0000 -89.5788 3.3158 39.5207 137.2037 -49.6420 -99.4546 -0.0000 0.0000 -13.5193 23.4660 -27.6975 -11.4077 -7.1250 0.0000 -0.0000 -4.0393 0.2632 4.0307 -0.0000 0.0000 0.0000 87.4813 10.0364 38.3537 -97.8068 59.7684 -66.7556 0.0000 -0.0000 -8.0724 -18.6861 -25.8843 8.3989 7.1250 -0.0000 -0.0000 12.2334 -56.6824 -3.5398
16.1365 17.8840 22.4356 0.4432 33.8968 -0.4502 0.0000 0.0000 0.0000 -20.2246 -3.2071 -7.0866 2.7323 10.2486 29.7856 0.0547 -7.6487 -6.4803 5.1287 -13.5273 -41.3758 0.0000 0.0000 0.0000 19.1153 2.3666 -7.7512 -3.4201 -11.3459 33.4554 -0.1771 -6.1581 -12.4958 -0.1717 -2.6695 7.3599 0.2069 1.3670 5.5237 3.1606 2.0471 -2.9192 2.9613 1.0831 -6.2570 4.5609 8.2327 -12.1316 -10.6366 11.8833 10.4994 -2.9756 5.2572 6.1024 0.0000 -0.0000 0.0000 -89.6736 4.7244 38.5653 135.4565 -50.5429 -98.1143 -0.0000 0.0000 -13.4421 23.7117 -27.8853 -11.6083 -7.1250 0.0000 -0.0000 -3.9197 0.0168 3.9278 0.0000 -0.0000 0.0000 87.2432 9.1489 38.2433 -96.1853 59.8549 -65.3540 0.0000 -0.0000 -8.0507 -18.5045 -26.3534 8.4505 7.1250 -0.0000 -0.0000 12.6686 -57.1110 -3.8004
16.1834 17.8833 22.5290 0.3997 33.8677 -0.1145 0.0000 0.0000 0.0000 -20.0881 -3.1234 -6.8121 2.6315 10.0731 29.2138 0.0460 -8.0168 -6.5304 5.3829 -13.8025 -42.4518 0.0000 0.0000 0.0000 19.2265 2.6330 -7.4501 -3.3587 -11.2542 33.1420 -0.1986 -6.1648 -12.8653 -0.1578 -2.5592 7.0538 -0.0215 1.3695 5.4504 3.2529 2.0378 -2.9508 3.1894 1.0911 -6.2601 4.9530 8.5246 -11.9133 -10.8506 12.2469 10.4325 -3.0712 5.4438 6.1112 -0.0000 0.0000 0.0000 -90.2204 6.1985 37.6274 133.1578 -51.6397 -96.3254 -0.0000 0.0000 -13.3633 23.3217 -27.7839 -11.3628 -7.1250 0.0000 -0.0000 -4.1362 0.2029 4.1323 -0.0000 0.0000 0.0000 86.8799 8.2822 37.8499 -92.8361 59.9696 -62.4558 0.0000 -0.0000 -7.5255 -18.6127 -25.8281 8.3473 7.1250 -0.0000 -0.0000 12.2814 -56.6109 -3.5327
16.2399 17.8895 22.5908 0.2553 33.2852 0.5885 0.0000 0.0000 0.0000 -20.0108 -3.4974 -6.9873 2.5574 9.9415 28.7875 0.0612 -7.7664 -6.6712 5.5284 -13.9553 -43.0585 0.0000 0.0000 0.0000 19.1780 3.0798 -7.8415 -3.3040 -11.1716 32.8609 -0.2294 -5.5727 -12.7966 -0.1666 -2.6293 7.2482 0.1605 1.5125 5.2356 3.2591 2.2465 -3.1115 3.0741 1.1889 -6.3120 5.0490 8.7230 -11.6192 -10.7640 12.4940 10.4100 -3.0431 5.5844 6.0737 0.0000 -0.0000 0.0000 -90.7750 7.4856 36.5553 129.9344 -53.0219 -93.7735 -0.0000 0.0000 -12.9471 22.8913 -27.1032 -10.8889 -7.1250 0.0000 -0.0000 -4.3025 0.9975 4.2390 0.0000 -0.0000 0.0000 86.5876 7.5693 37.5050 -88.0957 59.9863 -58.3509 0.0000 -0.0000 -7.0471 -18.4089 -26.0185 8.3064 7.1250 -0.0000 -0.0000 12.5927 -56.7578 -3.6691
16.2826 17.8833 22.6562 0.1333 32.4892 1.0307 0.0000 0.0000 0.0000 -19.8930 -3.6235 -6.9680 2.5037 9.8447 28.4753 0.0816 -7.5372 -6.9262 5.5365 -13.9636 -43.0919 0.0000 0.0000 0.0000 19.1981 3.7029 -7.8858 -3.2571 -11.1000 32.6179 -0.2516 -5.0813 -12.7123 -0.1770 -2.7102 7.4731 0.1096 1.6927 5.2353 3.2672 2.4860 -3.1556 3.0850 1.3104 -6.3748 5.3903 9.0141 -11.3421 -10.8051 12.8369 10.3018 -3.0823 5.7735 6.0449 0.0000 0.0000 0.0000 -91.2951 8.6913 35.3293 125.8477 -54.5388 -90.4757 -0.0000 0.0000 -12.3093 22.4096 -25.7639 -10.1618 -7.1250 0.0000 -0.0000 -4.4282 2.4839 4.2450 0.0000 0.0000 0.0000 86.4956 6.9602 37.2152 -81.9424 59.7532 -53.0277 0.0000 -0.0000 -6.6641 -18.2216 -27.2810 8.5807 7.1250 -0.0000 -0.0000 13.4793 -57.9680 -4.3294
16.3237 17.8519 22.7393 0.0266 33.8916 0.5707 0.0000 0.0000 0.0000 -19.6402 -4.2705 -5.9043 2.4652 9.7743 28.2488 0.0728 -8.4152 -7.2460 5.5331 -13.9601 -43.0777 0.0000 0.0000 0.0000 19.5934 3.1017 -6.8684 -3.2196 -11.0424 32.4229 -0.2577 -5.8204 -13.4772 -0.1894 -2.8031 7.7309 0.0985 1.1730 5.7076 3.3191 1.7921 -2.8989 3.2148 0.9662 -6.3372 5.6133 9.2297 -11.0592 -10.8791 13.0948 10.1147 -3.1246 5.9178 5.9794 0.0000 0.0000 0.0000 -91.9360 9.7763 34.1640 120.8061 -56.0913 -86.3288 -0.0000 0.0000 -11.4923 21.5230 -24.1465 -9.1644 -7.1250 0.0000 -0.0000 -4.7922 4.3275 4.4328 0.0000 0.0000 0.0000 86.4583 6.4387 36.6861 -74.7581 59.1037 -46.8398 0.0000 -0.0000 -6.6016 -18.0428 -27.0279 8.4202 7.1250 -0.0000 -0.0000 13.5246 -57.6794 -4.2498
16.3494 17.8426 22.8114 -0.1038 33.3171 1.0410 0.0000 0.0000 0.0000 -19.4176 -3.9404 -6.1884 2.4308 9.7110 28.0458 0.0891 -8.4459 -7.5400 5.5926 -14.0215 -43.3238 0.0000 0.0000 0.0000 19.8052 3.9128 -6.9005 -3.1999 -11.0119 32.3199 -0.2763 -5.8431 -13.7821 -0.1892 -2.8015 7.7266 -0.1437 1.3723 5.4620 3.4007 2.0383 -2.8553 3.4140 1.0991 -6.1768 5.6815 9.3511 -10.7688 -10.9142 13.2429 9.9144 -3.1447 6.0067 5.8870 -0.0000 -0.0000 0.0000 -92.7576 10.7135 32.9233 114.6020 -57.5847 -81.1332 -0.0000 0.0000 -10.1017 20.0083 -22.6663 -7.9878 -7.1250 0.0000 -0.0000 -5.5948 6.1134 4.9916 -0.0000 -0.0000 0.0000 86.4521 6.0167 35.8642 -67.0574 57.9146 -40.2702 0.0000 -0.0000 -6.8304 -15.8778 -29.6563 8.0111 7.1250 -0.0000 -0.0000 17.4909 -59.7442 -6.4143
16.3881 17.8313 22.8751 0.0596 33.2105 1.4633 0.0000 0.0000 0.0000 -19.5774 -3.9464 -6.1643 2.4004 9.6545 27.8651 0.1054 -8.4117 -7.7944 5.5761 -14.0046 -43.2557 0.0000 0.0000 0.0000 19.6620 4.0254 -6.9353 -3.1937 -11.0022 32.2873 -0.3123 -5.7624 -14.2413 -0.1905 -2.8110 7.7531 -0.3490 1.3948 5.3467 3.3307 2.0421 -2.7607 3.4581 1.1052 -6.0154 5.8460 9.5112 -10.4664 -10.9929 13.4347 9.7016 -3.1891 6.1181 5.8024 0.0000 0.0000 0.0000 -93.6575 11.4606 31.4459 106.8973 -58.8932 -74.5791 -0.0000 0.0000 -8.2660 18.5995 -21.5482 -7.0461 -7.1250 0.0000 -0.0000 -6.3965 7.4774 5.5452 0.0000 0.0000 0.0000 86.5986 5.6128 35.0767 -59.7802 56.2511 -34.1582 0.0000 -0.0000 -7.8213 -13.8920 -31.4458 7.3522 7.1250 -0.0000 -0.0000 20.9805 -60.9558 -8.3669
16.4363 17.8231 22.9281 0.4154 32.9967 1.9951 0.0000 0.0000 0.0000 -20.0197 -4.1316 -6.0547 2.3716 9.6005 27.6926 0.1264 -8.0712 -7.9696 5.4549 -13.8784 -42.7526 0.0000 0.0000 0.0000 19.2143 3.8583 -7.1310 -3.1982 -11.0093 32.3111 -0.3487 -5.3818 -14.4355 -0.1757 -2.7003 7.4456 -0.5497 1.4404 5.2353 3.1617 2.0729 -2.6991 3.3928 1.1221 -5.8889 6.1495 9.7140 -10.0638 -11.1221 13.6839 9.5511 -3.2674 6.2610 5.7391 0.0000 0.0000 0.0000 -94.4738 12.1231 30.1943 98.5023 -59.7251 -67.3564 -0.0000 0.0000 -6.9415 17.7779 -19.5376 -6.1204 -7.1250 0.0000 -0.0000 -6.8005 9.6565 5.6041 0.0000 0.0000 0.0000 86.9451 4.9851 34.0626 -53.7084 54.3859 -29.1631 0.0000 -0.0000 -8.5327 -11.3012 -36.4591 6.7725 7.1250 -0.0000 -0.0000 28.7782 -64.7540 -14.3075
16.4839 17.8218 22.9713 0.7416 32.7777 2.5105 0.0000 0.0000 0.0000 -20.4557 -4.4592 -5.9318 2.3492 9.5584 27.5582 0.1440 -7.6187 -8.0539 5.2442 -13.6537 -41.8675 0.0000 0.0000 0.0000 18.7692 3.6248 -7.3824 -3.2016 -11.0144 32.3286 -0.3747 -4.9631 -14.4590 -0.1425 -2.4332 6.7044 -0.6458 1.5304 5.2112 2.9469 2.1719 -2.6898 3.2116 1.1689 -5.8659 6.6795 9.8826 -9.5253 -11.3774 13.8879 9.4570 -3.4294 6.3857 5.6929 0.0000 0.0000 0.0000 -95.0578 12.7137 29.1080 89.3848 -59.9986 -59.4672 -0.0000 0.0000 -5.7357 17.0069 -18.2926 -5.4837 -7.1250 0.0000 -0.0000 -7.2444 11.0278 5.7724 0.0000 0.0000 0.0000 87.4619 4.0210 32.7548 -48.7533 52.4802 -25.1820 0.0000 -0.0000 -8.8627 -8.6834 -41.2435 5.7495 7.1250 -0.0000 -0.0000 38.3676 -67.8420 -22.3154
